<svg width="24" height="24" viewBox="0 0 24 24" fill="none" xmlns="http://www.w3.org/2000/svg">
<path fill-rule="evenodd" clip-rule="evenodd" d="M9.43091 7.13384C9.44535 6.97543 9.52212 6.82923 9.64432 6.7274C9.76652 6.62556 9.92416 6.57642 10.0826 6.59078L16.3048 7.15675C16.4604 7.17467 16.6029 7.25273 16.7017 7.37426C16.8005 7.49578 16.8479 7.65114 16.8337 7.80713C16.8195 7.96312 16.7449 8.10738 16.6258 8.2091C16.5067 8.31081 16.3525 8.36191 16.1962 8.35148L9.97396 7.78551C9.81555 7.77106 9.66936 7.6943 9.56753 7.5721C9.46569 7.4499 9.41655 7.29226 9.43091 7.13384Z" fill="#2C2C2C"/>
<path fill-rule="evenodd" clip-rule="evenodd" d="M16.8708 14.5737C16.7124 14.5881 16.5547 14.5389 16.4325 14.4371C16.3103 14.3353 16.2335 14.1891 16.2191 14.0306L15.6531 7.80839C15.6427 7.6521 15.6938 7.49793 15.7955 7.37881C15.8972 7.25969 16.0415 7.18507 16.1975 7.17089C16.3535 7.15671 16.5088 7.20409 16.6304 7.30291C16.7519 7.40174 16.8299 7.54417 16.8479 7.69978L17.4138 13.922C17.4282 14.0805 17.379 14.2381 17.2772 14.3603C17.1754 14.4825 17.0292 14.5593 16.8708 14.5737Z" fill="#2C2C2C"/>
<path fill-rule="evenodd" clip-rule="evenodd" d="M16.2505 7.75408C16.363 7.8666 16.4262 8.01922 16.4262 8.17835C16.4262 8.33748 16.363 8.49009 16.2505 8.60261L8.18946 16.6636C8.07694 16.7761 7.92433 16.8394 7.7652 16.8394C7.60607 16.8394 7.45346 16.7761 7.34093 16.6636C7.22841 16.5511 7.1652 16.3985 7.1652 16.2394C7.1652 16.0802 7.22841 15.9276 7.34093 15.8151L15.402 7.75408C15.5145 7.64156 15.6671 7.57834 15.8262 7.57834C15.9853 7.57834 16.138 7.64156 16.2505 7.75408Z" fill="#2C2C2C"/>
</svg>
